<?xml version="1.0" encoding="UTF-8"?>
<svg id="Capa_1" xmlns="http://www.w3.org/2000/svg" version="1.1" viewBox="0 0 33 33">
  <!-- Generator: Adobe Illustrator 29.2.1, SVG Export Plug-In . SVG Version: 2.1.0 Build 116)  -->
  <defs>
    <style>
      .st0 {
        fill: #fff;
      }

      .st1 {
        fill: #383838;
      }
    </style>
  </defs>
  <circle class="st1" cx="16.5" cy="16.5" r="16.5"/>
  <path class="st0" d="M22,23c-.3,0-.5,0-.7-.3l-4.8-4.8-4.8,4.8c-.4.4-1,.4-1.4,0s-.4-1,0-1.4l4.8-4.8-4.8-4.8c-.4-.4-.4-1,0-1.4s1-.4,1.4,0l4.8,4.8,4.8-4.8c.4-.4,1-.4,1.4,0s.4,1,0,1.4l-4.8,4.8,4.8,4.8c.4.4.4,1,0,1.4s-.5.3-.7.3Z"/>
</svg>