<svg width="473" height="160" viewBox="0 0 473 160" fill="none" xmlns="http://www.w3.org/2000/svg">
<path d="M74.5488 57.76C75.4288 58 76.3088 58.16 77.2688 58.16C85.2688 58.16 91.1888 48 91.1888 33.76C91.1888 19.92 85.6688 10.16 77.7488 10.16C76.3888 10.16 75.0287 10.48 73.9088 11.04C73.1088 11.92 72.3088 13.36 72.3088 17.28V50.8C72.3088 55.92 73.6688 56.88 74.5488 57.76ZM58.7088 62C57.2688 62 56.3088 60.96 56.3088 59.52C56.3088 56.8 59.5088 58.56 59.5088 50.8V17.28C59.5088 9.52 56.3088 11.28 56.3088 8.56C56.3088 7.2 57.2688 6.16 58.7088 6.16H76.0688C96.3088 6.16 103.989 17.12 103.989 34.16C103.989 51.76 95.7488 62 76.5488 62H58.7088ZM110.199 62C108.759 62 107.799 60.96 107.799 59.52C107.799 56.8 110.999 58.56 110.999 50.8V33.68C110.999 30.48 106.999 32.64 106.999 30.64C106.999 27.92 114.839 22.08 119.639 22.08C121.879 22.08 123.799 23.36 123.799 25.28V50.8C123.799 58.56 126.919 56.8 126.919 59.52C126.919 60.96 125.959 62 124.599 62H110.199ZM110.999 12.48C110.999 8.64 113.559 6.16 117.399 6.16C121.239 6.16 123.799 8.64 123.799 12.48C123.799 16.32 121.239 18.88 117.399 18.88C113.559 18.88 110.999 16.32 110.999 12.48ZM142.464 29.76C142.464 37.2 165.184 38.56 165.184 50.72C165.184 57.6 157.984 62.72 147.504 62.72C138.144 62.72 131.264 58.56 131.264 52.48C131.264 49.04 133.424 46.96 136.864 46.96C144.944 46.96 140.784 58.64 147.424 58.64C150.224 58.64 152.384 56.4 152.384 54.08C152.384 46.64 129.664 45.84 129.664 33.44C129.664 26.48 136.864 21.28 147.344 21.28C156.624 21.28 163.584 25.44 163.584 31.52C163.584 34.96 161.424 37.04 157.984 37.04C149.904 37.04 154.064 25.36 147.504 25.36C144.624 25.36 142.464 27.52 142.464 29.76ZM181.529 38.88C188.329 38.64 192.889 34.96 192.889 30.32C192.889 26.88 190.489 25.36 188.409 25.36C184.089 25.36 181.609 32.4 181.529 38.88ZM207.529 52.88C205.049 58.96 197.849 63.76 188.809 63.76C176.889 63.76 168.729 55.2 168.729 41.6C168.729 28.56 176.409 21.28 188.329 21.28C197.929 21.28 205.849 25.92 205.849 32.24C205.849 39.12 196.249 43.52 181.849 43.36C183.129 51.04 188.169 55.76 195.289 55.76C199.529 55.76 203.529 54.08 205.289 51.84C206.009 50.96 206.729 50.64 207.289 50.64C208.009 50.64 208.249 51.12 207.529 52.88ZM213.558 62C212.118 62 211.158 60.96 211.158 59.52C211.158 56.8 214.358 58.56 214.358 50.8V33.68C214.358 30.48 210.358 32.64 210.358 30.64C210.358 27.92 218.198 22.08 222.998 22.08C225.238 22.08 227.158 23.36 227.158 25.28V29.12C230.598 24.96 235.398 22.08 240.678 22.08C247.318 22.08 251.878 26.56 251.878 33.28V50.4C251.878 53.6 255.878 51.44 255.878 53.44C255.878 56.16 248.038 62 243.238 62C240.998 62 239.078 60.72 239.078 58.8V36.48C239.078 33.68 237.078 31.76 234.118 31.76C231.718 31.76 229.078 33.04 227.158 35.28V50.8C227.158 58.56 230.278 56.8 230.278 59.52C230.278 60.96 229.318 62 227.958 62H213.558ZM278.174 25.28C274.094 25.28 271.374 32.32 271.374 42.72C271.374 53.04 274.094 59.76 278.094 59.76C282.254 59.76 285.054 52.96 285.054 42.56C285.054 32.24 282.334 25.28 278.174 25.28ZM278.254 63.76C264.814 63.76 258.574 55.36 258.574 42.48C258.574 29.76 264.654 21.28 278.094 21.28C291.614 21.28 297.854 29.76 297.854 42.72C297.854 55.44 291.774 63.76 278.254 63.76ZM358.585 53.76V31.68C357.065 28.16 354.745 26.08 351.945 26.08C347.145 26.08 344.345 32.88 344.345 42.96C344.345 52.8 347.065 59.76 351.945 59.76C354.745 59.76 357.065 57.52 358.585 53.76ZM371.385 52C371.385 55.2 375.385 53.04 375.385 55.04C375.385 57.76 367.545 63.6 362.745 63.6C360.585 63.6 358.665 62.32 358.585 60.48C355.785 62.56 352.345 63.76 348.505 63.76C337.785 63.76 331.545 55.28 331.545 42.4C331.545 29.6 337.625 21.28 349.945 21.28C353.065 21.28 356.105 21.76 358.585 23.12V17.6C358.585 14.4 354.585 16.56 354.585 14.56C354.585 11.84 362.425 6.08 367.225 6.08C369.465 6.08 371.385 7.36 371.385 9.2V52ZM390.982 38.88C397.782 38.64 402.342 34.96 402.342 30.32C402.342 26.88 399.942 25.36 397.862 25.36C393.542 25.36 391.062 32.4 390.982 38.88ZM416.982 52.88C414.502 58.96 407.302 63.76 398.262 63.76C386.342 63.76 378.182 55.2 378.182 41.6C378.182 28.56 385.862 21.28 397.782 21.28C407.382 21.28 415.302 25.92 415.302 32.24C415.302 39.12 405.702 43.52 391.302 43.36C392.582 51.04 397.622 55.76 404.742 55.76C408.982 55.76 412.982 54.08 414.742 51.84C415.462 50.96 416.182 50.64 416.742 50.64C417.462 50.64 417.702 51.12 416.982 52.88ZM62.5816 137C61.1416 137 60.1816 135.96 60.1816 134.52C60.1816 131.8 63.3816 133.56 63.3816 125.8V108.68C63.3816 105.48 59.3816 107.64 59.3816 105.64C59.3816 102.92 67.2216 97.08 72.0216 97.08C74.2616 97.08 76.1816 98.36 76.1816 100.28V125.8C76.1816 133.56 79.3016 131.8 79.3016 134.52C79.3016 135.96 78.3416 137 76.9816 137H62.5816ZM63.3816 87.48C63.3816 83.64 65.9416 81.16 69.7816 81.16C73.6216 81.16 76.1816 83.64 76.1816 87.48C76.1816 91.32 73.6216 93.88 69.7816 93.88C65.9416 93.88 63.3816 91.32 63.3816 87.48ZM85.2378 137C83.7978 137 82.8378 135.96 82.8378 134.52C82.8378 131.8 86.0378 133.56 86.0378 125.8V108.68C86.0378 105.48 82.0378 107.64 82.0378 105.64C82.0378 102.92 89.8778 97.08 94.6778 97.08C96.9178 97.08 98.8378 98.36 98.8378 100.28V104.12C102.278 99.96 107.078 97.08 112.358 97.08C118.998 97.08 123.558 101.56 123.558 108.28V125.4C123.558 128.6 127.558 126.44 127.558 128.44C127.558 131.16 119.718 137 114.918 137C112.678 137 110.758 135.72 110.758 133.8V111.48C110.758 108.68 108.758 106.76 105.798 106.76C103.398 106.76 100.758 108.04 98.8378 110.28V125.8C98.8378 133.56 101.958 131.8 101.958 134.52C101.958 135.96 100.998 137 99.6378 137H85.2378ZM152.76 130.6C150.6 134.28 145.72 137 141.64 137C135.96 137 132.12 131.72 132.12 123.8V103.8C132.12 100.6 128.12 102.76 128.12 100.76V98.6C128.12 96.28 139.24 89.32 141.88 89.32C143 89.32 144.92 90.6 144.92 92.52V97.08H150.6C151.56 97.08 152.12 97.64 152.12 98.6V100.2C152.12 101.16 151.56 101.72 150.6 101.72H144.92V123.8C144.92 127.32 147.72 129.88 151.32 128.12C153.64 127 153.72 129 152.76 130.6ZM168.677 113.88C175.477 113.64 180.037 109.96 180.037 105.32C180.037 101.88 177.637 100.36 175.557 100.36C171.237 100.36 168.757 107.4 168.677 113.88ZM194.677 127.88C192.197 133.96 184.997 138.76 175.957 138.76C164.037 138.76 155.877 130.2 155.877 116.6C155.877 103.56 163.557 96.28 175.477 96.28C185.077 96.28 192.997 100.92 192.997 107.24C192.997 114.12 183.397 118.52 168.997 118.36C170.277 126.04 175.317 130.76 182.437 130.76C186.677 130.76 190.677 129.08 192.437 126.84C193.157 125.96 193.877 125.64 194.437 125.64C195.157 125.64 195.397 126.12 194.677 127.88ZM200.707 137C199.267 137 198.307 135.96 198.307 134.52C198.307 131.8 201.507 133.56 201.507 125.8V108.68C201.507 105.48 197.507 107.64 197.507 105.64C197.507 102.92 205.347 97.08 210.147 97.08C212.387 97.08 214.307 98.36 214.307 100.28V101C215.907 98.04 218.627 96.28 221.987 96.28C227.347 96.28 231.827 100.6 231.827 106.12C231.827 109.88 229.747 112.04 226.227 112.04C219.027 112.04 221.507 103.24 217.827 103.32C216.387 103.32 215.027 104.68 214.307 107.08V125.8C214.307 133.56 217.427 131.8 217.427 134.52C217.427 135.96 216.467 137 215.107 137H200.707ZM236.878 137C235.438 137 234.478 135.96 234.478 134.52C234.478 131.8 237.678 133.56 237.678 125.8V108.68C237.678 105.48 233.678 107.64 233.678 105.64C233.678 102.92 241.518 97.08 246.318 97.08C248.558 97.08 250.478 98.36 250.478 100.28V125.8C250.478 133.56 253.598 131.8 253.598 134.52C253.598 135.96 252.638 137 251.278 137H236.878ZM237.678 87.48C237.678 83.64 240.238 81.16 244.078 81.16C247.918 81.16 250.478 83.64 250.478 87.48C250.478 91.32 247.918 93.88 244.078 93.88C240.238 93.88 237.678 91.32 237.678 87.48ZM276.104 100.28C272.024 100.28 269.304 107.32 269.304 117.72C269.304 128.04 272.024 134.76 276.024 134.76C280.184 134.76 282.984 127.96 282.984 117.56C282.984 107.24 280.264 100.28 276.104 100.28ZM276.184 138.76C262.744 138.76 256.504 130.36 256.504 117.48C256.504 104.76 262.584 96.28 276.024 96.28C289.544 96.28 295.784 104.76 295.784 117.72C295.784 130.44 289.704 138.76 276.184 138.76ZM302.113 137C300.673 137 299.713 135.96 299.713 134.52C299.713 131.8 302.913 133.56 302.913 125.8V108.68C302.913 105.48 298.913 107.64 298.913 105.64C298.913 102.92 306.753 97.08 311.553 97.08C313.793 97.08 315.713 98.36 315.713 100.28V101C317.313 98.04 320.033 96.28 323.393 96.28C328.753 96.28 333.233 100.6 333.233 106.12C333.233 109.88 331.153 112.04 327.633 112.04C320.433 112.04 322.913 103.24 319.233 103.32C317.793 103.32 316.433 104.68 315.713 107.08V125.8C315.713 133.56 318.833 131.8 318.833 134.52C318.833 135.96 317.873 137 316.513 137H302.113ZM348.365 113.88C355.165 113.64 359.725 109.96 359.725 105.32C359.725 101.88 357.325 100.36 355.245 100.36C350.925 100.36 348.445 107.4 348.365 113.88ZM374.365 127.88C371.885 133.96 364.685 138.76 355.645 138.76C343.725 138.76 335.565 130.2 335.565 116.6C335.565 103.56 343.245 96.28 355.165 96.28C364.765 96.28 372.685 100.92 372.685 107.24C372.685 114.12 363.085 118.52 348.685 118.36C349.965 126.04 355.005 130.76 362.125 130.76C366.365 130.76 370.365 129.08 372.125 126.84C372.845 125.96 373.565 125.64 374.125 125.64C374.845 125.64 375.085 126.12 374.365 127.88ZM390.394 104.76C390.394 112.2 413.114 113.56 413.114 125.72C413.114 132.6 405.914 137.72 395.434 137.72C386.074 137.72 379.194 133.56 379.194 127.48C379.194 124.04 381.354 121.96 384.794 121.96C392.874 121.96 388.714 133.64 395.354 133.64C398.154 133.64 400.314 131.4 400.314 129.08C400.314 121.64 377.594 120.84 377.594 108.44C377.594 101.48 384.794 96.28 395.274 96.28C404.554 96.28 411.514 100.44 411.514 106.52C411.514 109.96 409.354 112.04 405.914 112.04C397.834 112.04 401.994 100.36 395.434 100.36C392.554 100.36 390.394 102.52 390.394 104.76Z" fill="black"/>
<path d="M236.26 5C238.783 5 240.899 5.39832 242.608 6.19497C244.317 6.99161 245.863 7.90776 247.247 8.9434C248.712 9.97904 250.177 10.8952 251.642 11.6918C253.188 12.4885 254.938 12.8868 256.891 12.8868C258.6 12.8868 260.228 12.4088 261.774 11.4528C263.402 10.4172 264.907 8.78406 266.291 6.55345L268 7.38994C266.616 13.2851 264.541 17.5472 261.774 20.1761C259.088 22.7254 256.118 24 252.862 24C250.339 24 248.183 23.6017 246.392 22.805C244.683 22.0084 243.096 21.0922 241.631 20.0566C240.248 18.9413 238.823 17.9853 237.358 17.1887C235.894 16.392 234.144 15.9937 232.109 15.9937C230.4 15.9937 228.732 16.5115 227.104 17.5472C225.558 18.5031 224.093 20.1363 222.709 22.4465L221 21.6101C222.384 15.6352 224.459 11.3732 227.226 8.8239C229.993 6.27463 233.004 5 236.26 5Z" fill="black"/>
</svg>
