<svg width="1367" height="152" viewBox="0 0 1367 152" fill="none" xmlns="http://www.w3.org/2000/svg">
<line x1="254.5" y1="45" x2="254.5" y2="152" stroke="#383838" stroke-width="3"/>
<line x1="39.5" y1="45" x2="39.5" y2="152" stroke="#383838" stroke-width="3"/>
<line x1="1114.5" y1="45" x2="1114.5" y2="152" stroke="#383838" stroke-width="3"/>
<line x1="469.5" y1="45" x2="469.5" y2="152" stroke="#383838" stroke-width="3"/>
<line x1="1329.5" y1="45" x2="1329.5" y2="152" stroke="#383838" stroke-width="3"/>
<line x1="684.5" y1="45" x2="684.5" y2="152" stroke="#383838" stroke-width="3"/>
<line x1="899.5" y1="45" x2="899.5" y2="152" stroke="#383838" stroke-width="3"/>
<line x1="211.5" y1="77" x2="211.5" y2="152" stroke="#ECECEC" stroke-width="3"/>
<line x1="1071.5" y1="77" x2="1071.5" y2="152" stroke="#ECECEC" stroke-width="3"/>
<line x1="168.5" y1="77" x2="168.5" y2="152" stroke="#ECECEC" stroke-width="3"/>
<line x1="1028.5" y1="77" x2="1028.5" y2="152" stroke="#ECECEC" stroke-width="3"/>
<line x1="125.5" y1="77" x2="125.5" y2="152" stroke="#ECECEC" stroke-width="3"/>
<line x1="985.5" y1="77" x2="985.5" y2="152" stroke="#ECECEC" stroke-width="3"/>
<line x1="82.5" y1="77" x2="82.5" y2="152" stroke="#ECECEC" stroke-width="3"/>
<line x1="942.5" y1="77" x2="942.5" y2="152" stroke="#ECECEC" stroke-width="3"/>
<line x1="426.5" y1="77" x2="426.5" y2="152" stroke="#ECECEC" stroke-width="3"/>
<line x1="1286.5" y1="77" x2="1286.5" y2="152" stroke="#ECECEC" stroke-width="3"/>
<line x1="383.5" y1="77" x2="383.5" y2="152" stroke="#ECECEC" stroke-width="3"/>
<line x1="1243.5" y1="77" x2="1243.5" y2="152" stroke="#ECECEC" stroke-width="3"/>
<line x1="340.5" y1="77" x2="340.5" y2="152" stroke="#ECECEC" stroke-width="3"/>
<line x1="1200.5" y1="77" x2="1200.5" y2="152" stroke="#ECECEC" stroke-width="3"/>
<line x1="297.5" y1="77" x2="297.5" y2="152" stroke="#ECECEC" stroke-width="3"/>
<line x1="1157.5" y1="77" x2="1157.5" y2="152" stroke="#ECECEC" stroke-width="3"/>
<line x1="641.5" y1="77" x2="641.5" y2="152" stroke="#ECECEC" stroke-width="3"/>
<line x1="598.5" y1="77" x2="598.5" y2="152" stroke="#ECECEC" stroke-width="3"/>
<line x1="555.5" y1="77" x2="555.5" y2="152" stroke="#ECECEC" stroke-width="3"/>
<line x1="512.5" y1="77" x2="512.5" y2="152" stroke="#ECECEC" stroke-width="3"/>
<line x1="856.5" y1="77" x2="856.5" y2="152" stroke="#ECECEC" stroke-width="3"/>
<line x1="813.5" y1="77" x2="813.5" y2="152" stroke="#ECECEC" stroke-width="3"/>
<line x1="770.5" y1="77" x2="770.5" y2="152" stroke="#ECECEC" stroke-width="3"/>
<line x1="727.5" y1="77" x2="727.5" y2="152" stroke="#ECECEC" stroke-width="3"/>
<path d="M26.9395 23H21.4805V21.8574H23.541V13.1562C23.4238 13.4232 23.2383 13.7096 22.9844 14.0156C22.7305 14.3151 22.431 14.5918 22.0859 14.8457C21.7409 15.0931 21.36 15.3014 20.9434 15.4707C20.5332 15.64 20.1068 15.7246 19.6641 15.7246V14.3379C20.0612 14.3379 20.4876 14.2142 20.9434 13.9668C21.3991 13.7194 21.819 13.4036 22.2031 13.0195C22.5872 12.6354 22.9062 12.1992 23.1602 11.7109C23.4141 11.2227 23.541 10.7376 23.541 10.2559H24.8887V21.8574H26.9395V23ZM30.3574 14.6016C30.3574 13.8919 30.4746 13.2572 30.709 12.6973C30.9434 12.1374 31.2656 11.6621 31.6758 11.2715C32.0924 10.8743 32.584 10.5716 33.1504 10.3633C33.7168 10.1484 34.3288 10.041 34.9863 10.041C35.8783 10.041 36.6335 10.2266 37.252 10.5977C37.8704 10.9622 38.3652 11.4505 38.7363 12.0625C39.1139 12.6745 39.3841 13.3743 39.5469 14.1621C39.7161 14.9499 39.8008 15.7702 39.8008 16.623C39.8008 17.4889 39.6868 18.319 39.459 19.1133C39.2311 19.9076 38.8926 20.6107 38.4434 21.2227C38.0007 21.8346 37.4375 22.3229 36.7539 22.6875C36.0768 23.0456 35.2923 23.2246 34.4004 23.2246C33.1374 23.2246 32.0859 22.7819 31.2461 21.8965L32.125 21.1152C32.418 21.4408 32.7565 21.6849 33.1406 21.8477C33.5312 22.0039 33.9512 22.082 34.4004 22.082C35.084 22.082 35.6829 21.9518 36.1973 21.6914C36.7181 21.431 37.1543 21.0697 37.5059 20.6074C37.8639 20.1387 38.1276 19.5788 38.2969 18.9277C38.4727 18.2702 38.5605 17.5475 38.5605 16.7598C38.4564 17.0918 38.2806 17.4043 38.0332 17.6973C37.7858 17.9902 37.4961 18.2441 37.1641 18.459C36.832 18.6738 36.4674 18.8464 36.0703 18.9766C35.6797 19.1003 35.2956 19.1621 34.918 19.1621C34.2539 19.1621 33.6419 19.0482 33.082 18.8203C32.5221 18.5924 32.0404 18.2799 31.6367 17.8828C31.2396 17.4792 30.9271 16.9974 30.6992 16.4375C30.4714 15.8776 30.3574 15.2656 30.3574 14.6016ZM31.7051 14.6016C31.7051 15.0833 31.7767 15.5358 31.9199 15.959C32.0697 16.3757 32.2812 16.737 32.5547 17.043C32.8281 17.349 33.1634 17.5898 33.5605 17.7656C33.9642 17.9349 34.4167 18.0195 34.918 18.0195C35.4128 18.0195 35.8652 17.9414 36.2754 17.7852C36.6921 17.6224 37.0469 17.3978 37.3398 17.1113C37.6328 16.8249 37.8574 16.4798 38.0137 16.0762C38.1764 15.666 38.2578 15.2135 38.2578 14.7188C38.2578 14.237 38.1895 13.7845 38.0527 13.3613C37.9225 12.9316 37.7207 12.554 37.4473 12.2285C37.1803 11.903 36.8418 11.6491 36.4316 11.4668C36.028 11.278 35.5462 11.1836 34.9863 11.1836C34.5046 11.1836 34.0618 11.265 33.6582 11.4277C33.2611 11.584 32.916 11.8086 32.623 12.1016C32.3301 12.3945 32.1022 12.7559 31.9395 13.1855C31.7832 13.6087 31.7051 14.0807 31.7051 14.6016ZM50.6602 18.7227C50.6602 19.3477 50.543 19.9336 50.3086 20.4805C50.0742 21.0273 49.752 21.5059 49.3418 21.916C48.9382 22.3197 48.4499 22.6387 47.877 22.873C47.304 23.1074 46.679 23.2246 46.002 23.2246C45.39 23.2246 44.8236 23.1335 44.3027 22.9512C43.7819 22.7689 43.3229 22.5085 42.9258 22.1699C42.5352 21.8314 42.2194 21.4147 41.9785 20.9199C41.7376 20.4251 41.5911 19.8587 41.5391 19.2207L42.8379 19.0156C42.877 19.4583 42.9811 19.8717 43.1504 20.2559C43.3197 20.6335 43.541 20.9557 43.8145 21.2227C44.0879 21.4896 44.4102 21.7012 44.7812 21.8574C45.1523 22.0072 45.5592 22.082 46.002 22.082C46.5228 22.082 46.985 21.9974 47.3887 21.8281C47.7988 21.6523 48.1471 21.4115 48.4336 21.1055C48.7201 20.793 48.9382 20.4349 49.0879 20.0312C49.2441 19.6211 49.3223 19.1849 49.3223 18.7227C49.3223 18.2409 49.2441 17.7949 49.0879 17.3848C48.9382 16.9681 48.7233 16.61 48.4434 16.3105C48.1634 16.0111 47.8184 15.7767 47.4082 15.6074C47.0046 15.4316 46.5553 15.3438 46.0605 15.3438C45.5397 15.3438 45.0384 15.4544 44.5566 15.6758C44.0814 15.8906 43.668 16.2064 43.3164 16.623H41.9785V10.2559H49.957V11.3984H43.3164V15.3828C43.707 15.0052 44.1497 14.7155 44.6445 14.5137C45.1458 14.3053 45.6569 14.2012 46.1777 14.2012C46.8353 14.2012 47.4375 14.3086 47.9844 14.5234C48.5312 14.7318 49.0033 15.0312 49.4004 15.4219C49.7975 15.806 50.1068 16.278 50.3281 16.8379C50.5495 17.3978 50.6602 18.026 50.6602 18.7227ZM53.4336 16.6426C53.4336 17.5866 53.5475 18.472 53.7754 19.2988L59.7422 13C59.4297 12.4141 59.0423 11.9648 58.5801 11.6523C58.1243 11.3398 57.5905 11.1836 56.9785 11.1836C55.8327 11.1836 54.9538 11.6719 54.3418 12.6484C53.7363 13.6185 53.4336 14.9499 53.4336 16.6426ZM54.2344 20.3828C54.8789 21.5286 55.7936 22.1016 56.9785 22.1016C58.0983 22.1016 58.9674 21.6165 59.5859 20.6465C60.2044 19.6699 60.5137 18.3353 60.5137 16.6426C60.5137 16.1738 60.4844 15.7311 60.4258 15.3145C60.3672 14.8913 60.2858 14.4876 60.1816 14.1035L54.2344 20.3828ZM52.0957 16.6426C52.0957 15.7897 52.1868 14.9661 52.3691 14.1719C52.5514 13.3776 52.8346 12.6745 53.2188 12.0625C53.6029 11.4505 54.1042 10.9622 54.7227 10.5977C55.3477 10.2266 56.0996 10.041 56.9785 10.041C57.8574 10.041 58.6061 10.2266 59.2246 10.5977C59.8496 10.9622 60.3574 11.4505 60.748 12.0625C61.1387 12.6745 61.4219 13.3776 61.5977 14.1719C61.7734 14.9661 61.8613 15.7897 61.8613 16.6426C61.8613 17.4954 61.7734 18.319 61.5977 19.1133C61.4219 19.9076 61.1419 20.6074 60.7578 21.2129C60.3737 21.8184 59.8691 22.3066 59.2441 22.6777C58.6257 23.0423 57.8704 23.2246 56.9785 23.2246C56.0866 23.2246 55.3281 23.0423 54.7031 22.6777C54.0846 22.3066 53.5801 21.8184 53.1895 21.2129C52.8053 20.6074 52.5286 19.9076 52.3594 19.1133C52.1836 18.319 52.0957 17.4954 52.0957 16.6426Z" fill="black"/>
<path d="M240.939 23H235.48V21.8574H237.541V13.1562C237.424 13.4232 237.238 13.7096 236.984 14.0156C236.73 14.3151 236.431 14.5918 236.086 14.8457C235.741 15.0931 235.36 15.3014 234.943 15.4707C234.533 15.64 234.107 15.7246 233.664 15.7246V14.3379C234.061 14.3379 234.488 14.2142 234.943 13.9668C235.399 13.7194 235.819 13.4036 236.203 13.0195C236.587 12.6354 236.906 12.1992 237.16 11.7109C237.414 11.2227 237.541 10.7376 237.541 10.2559H238.889V21.8574H240.939V23ZM244.357 14.6016C244.357 13.8919 244.475 13.2572 244.709 12.6973C244.943 12.1374 245.266 11.6621 245.676 11.2715C246.092 10.8743 246.584 10.5716 247.15 10.3633C247.717 10.1484 248.329 10.041 248.986 10.041C249.878 10.041 250.633 10.2266 251.252 10.5977C251.87 10.9622 252.365 11.4505 252.736 12.0625C253.114 12.6745 253.384 13.3743 253.547 14.1621C253.716 14.9499 253.801 15.7702 253.801 16.623C253.801 17.4889 253.687 18.319 253.459 19.1133C253.231 19.9076 252.893 20.6107 252.443 21.2227C252.001 21.8346 251.438 22.3229 250.754 22.6875C250.077 23.0456 249.292 23.2246 248.4 23.2246C247.137 23.2246 246.086 22.7819 245.246 21.8965L246.125 21.1152C246.418 21.4408 246.757 21.6849 247.141 21.8477C247.531 22.0039 247.951 22.082 248.4 22.082C249.084 22.082 249.683 21.9518 250.197 21.6914C250.718 21.431 251.154 21.0697 251.506 20.6074C251.864 20.1387 252.128 19.5788 252.297 18.9277C252.473 18.2702 252.561 17.5475 252.561 16.7598C252.456 17.0918 252.281 17.4043 252.033 17.6973C251.786 17.9902 251.496 18.2441 251.164 18.459C250.832 18.6738 250.467 18.8464 250.07 18.9766C249.68 19.1003 249.296 19.1621 248.918 19.1621C248.254 19.1621 247.642 19.0482 247.082 18.8203C246.522 18.5924 246.04 18.2799 245.637 17.8828C245.24 17.4792 244.927 16.9974 244.699 16.4375C244.471 15.8776 244.357 15.2656 244.357 14.6016ZM245.705 14.6016C245.705 15.0833 245.777 15.5358 245.92 15.959C246.07 16.3757 246.281 16.737 246.555 17.043C246.828 17.349 247.163 17.5898 247.561 17.7656C247.964 17.9349 248.417 18.0195 248.918 18.0195C249.413 18.0195 249.865 17.9414 250.275 17.7852C250.692 17.6224 251.047 17.3978 251.34 17.1113C251.633 16.8249 251.857 16.4798 252.014 16.0762C252.176 15.666 252.258 15.2135 252.258 14.7188C252.258 14.237 252.189 13.7845 252.053 13.3613C251.923 12.9316 251.721 12.554 251.447 12.2285C251.18 11.903 250.842 11.6491 250.432 11.4668C250.028 11.278 249.546 11.1836 248.986 11.1836C248.505 11.1836 248.062 11.265 247.658 11.4277C247.261 11.584 246.916 11.8086 246.623 12.1016C246.33 12.3945 246.102 12.7559 245.939 13.1855C245.783 13.6087 245.705 14.0807 245.705 14.6016ZM264.855 18.6641C264.855 19.3672 264.738 19.9987 264.504 20.5586C264.276 21.1185 263.954 21.597 263.537 21.9941C263.127 22.3848 262.639 22.6875 262.072 22.9023C261.506 23.1172 260.894 23.2246 260.236 23.2246C259.331 23.2246 258.573 23.0423 257.961 22.6777C257.349 22.3066 256.854 21.8184 256.477 21.2129C256.105 20.6074 255.835 19.9076 255.666 19.1133C255.503 18.319 255.422 17.4954 255.422 16.6426C255.422 15.7767 255.533 14.9466 255.754 14.1523C255.982 13.3581 256.32 12.6549 256.77 12.043C257.219 11.4245 257.779 10.9362 258.449 10.5781C259.126 10.2201 259.917 10.041 260.822 10.041C262.085 10.041 263.137 10.4805 263.977 11.3594L263.098 12.1406C262.512 11.5026 261.753 11.1836 260.822 11.1836C260.139 11.1836 259.533 11.3138 259.006 11.5742C258.485 11.8346 258.049 12.1992 257.697 12.668C257.352 13.1302 257.092 13.6901 256.916 14.3477C256.747 14.9987 256.662 15.7148 256.662 16.4961C256.753 16.1641 256.926 15.8516 257.18 15.5586C257.434 15.2656 257.727 15.015 258.059 14.8066C258.391 14.5918 258.749 14.4225 259.133 14.2988C259.523 14.1686 259.914 14.1035 260.305 14.1035C260.969 14.1035 261.581 14.2174 262.141 14.4453C262.701 14.6667 263.179 14.9792 263.576 15.3828C263.98 15.7799 264.292 16.2585 264.514 16.8184C264.742 17.3783 264.855 17.9935 264.855 18.6641ZM263.518 18.6641C263.518 18.1823 263.443 17.7331 263.293 17.3164C263.15 16.8932 262.941 16.5286 262.668 16.2227C262.395 15.9167 262.056 15.6758 261.652 15.5C261.255 15.3242 260.806 15.2363 260.305 15.2363C259.81 15.2363 259.354 15.3177 258.938 15.4805C258.527 15.6432 258.176 15.8711 257.883 16.1641C257.59 16.457 257.362 16.8053 257.199 17.209C257.043 17.6061 256.965 18.0488 256.965 18.5371C256.965 19.0189 257.03 19.4746 257.16 19.9043C257.29 20.3275 257.492 20.7018 257.766 21.0273C258.039 21.3529 258.378 21.61 258.781 21.7988C259.191 21.9876 259.676 22.082 260.236 22.082C260.718 22.082 261.158 22.0039 261.555 21.8477C261.958 21.6849 262.307 21.457 262.6 21.1641C262.893 20.8711 263.117 20.5098 263.273 20.0801C263.436 19.6504 263.518 19.1784 263.518 18.6641ZM267.434 16.6426C267.434 17.5866 267.548 18.472 267.775 19.2988L273.742 13C273.43 12.4141 273.042 11.9648 272.58 11.6523C272.124 11.3398 271.59 11.1836 270.979 11.1836C269.833 11.1836 268.954 11.6719 268.342 12.6484C267.736 13.6185 267.434 14.9499 267.434 16.6426ZM268.234 20.3828C268.879 21.5286 269.794 22.1016 270.979 22.1016C272.098 22.1016 272.967 21.6165 273.586 20.6465C274.204 19.6699 274.514 18.3353 274.514 16.6426C274.514 16.1738 274.484 15.7311 274.426 15.3145C274.367 14.8913 274.286 14.4876 274.182 14.1035L268.234 20.3828ZM266.096 16.6426C266.096 15.7897 266.187 14.9661 266.369 14.1719C266.551 13.3776 266.835 12.6745 267.219 12.0625C267.603 11.4505 268.104 10.9622 268.723 10.5977C269.348 10.2266 270.1 10.041 270.979 10.041C271.857 10.041 272.606 10.2266 273.225 10.5977C273.85 10.9622 274.357 11.4505 274.748 12.0625C275.139 12.6745 275.422 13.3776 275.598 14.1719C275.773 14.9661 275.861 15.7897 275.861 16.6426C275.861 17.4954 275.773 18.319 275.598 19.1133C275.422 19.9076 275.142 20.6074 274.758 21.2129C274.374 21.8184 273.869 22.3066 273.244 22.6777C272.626 23.0423 271.87 23.2246 270.979 23.2246C270.087 23.2246 269.328 23.0423 268.703 22.6777C268.085 22.3066 267.58 21.8184 267.189 21.2129C266.805 20.6074 266.529 19.9076 266.359 19.1133C266.184 18.319 266.096 17.4954 266.096 16.6426Z" fill="black"/>
<path d="M454.939 23H449.48V21.8574H451.541V13.1562C451.424 13.4232 451.238 13.7096 450.984 14.0156C450.73 14.3151 450.431 14.5918 450.086 14.8457C449.741 15.0931 449.36 15.3014 448.943 15.4707C448.533 15.64 448.107 15.7246 447.664 15.7246V14.3379C448.061 14.3379 448.488 14.2142 448.943 13.9668C449.399 13.7194 449.819 13.4036 450.203 13.0195C450.587 12.6354 450.906 12.1992 451.16 11.7109C451.414 11.2227 451.541 10.7376 451.541 10.2559H452.889V21.8574H454.939V23ZM458.357 14.6016C458.357 13.8919 458.475 13.2572 458.709 12.6973C458.943 12.1374 459.266 11.6621 459.676 11.2715C460.092 10.8743 460.584 10.5716 461.15 10.3633C461.717 10.1484 462.329 10.041 462.986 10.041C463.878 10.041 464.633 10.2266 465.252 10.5977C465.87 10.9622 466.365 11.4505 466.736 12.0625C467.114 12.6745 467.384 13.3743 467.547 14.1621C467.716 14.9499 467.801 15.7702 467.801 16.623C467.801 17.4889 467.687 18.319 467.459 19.1133C467.231 19.9076 466.893 20.6107 466.443 21.2227C466.001 21.8346 465.438 22.3229 464.754 22.6875C464.077 23.0456 463.292 23.2246 462.4 23.2246C461.137 23.2246 460.086 22.7819 459.246 21.8965L460.125 21.1152C460.418 21.4408 460.757 21.6849 461.141 21.8477C461.531 22.0039 461.951 22.082 462.4 22.082C463.084 22.082 463.683 21.9518 464.197 21.6914C464.718 21.431 465.154 21.0697 465.506 20.6074C465.864 20.1387 466.128 19.5788 466.297 18.9277C466.473 18.2702 466.561 17.5475 466.561 16.7598C466.456 17.0918 466.281 17.4043 466.033 17.6973C465.786 17.9902 465.496 18.2441 465.164 18.459C464.832 18.6738 464.467 18.8464 464.07 18.9766C463.68 19.1003 463.296 19.1621 462.918 19.1621C462.254 19.1621 461.642 19.0482 461.082 18.8203C460.522 18.5924 460.04 18.2799 459.637 17.8828C459.24 17.4792 458.927 16.9974 458.699 16.4375C458.471 15.8776 458.357 15.2656 458.357 14.6016ZM459.705 14.6016C459.705 15.0833 459.777 15.5358 459.92 15.959C460.07 16.3757 460.281 16.737 460.555 17.043C460.828 17.349 461.163 17.5898 461.561 17.7656C461.964 17.9349 462.417 18.0195 462.918 18.0195C463.413 18.0195 463.865 17.9414 464.275 17.7852C464.692 17.6224 465.047 17.3978 465.34 17.1113C465.633 16.8249 465.857 16.4798 466.014 16.0762C466.176 15.666 466.258 15.2135 466.258 14.7188C466.258 14.237 466.189 13.7845 466.053 13.3613C465.923 12.9316 465.721 12.554 465.447 12.2285C465.18 11.903 464.842 11.6491 464.432 11.4668C464.028 11.278 463.546 11.1836 462.986 11.1836C462.505 11.1836 462.062 11.265 461.658 11.4277C461.261 11.584 460.916 11.8086 460.623 12.1016C460.33 12.3945 460.102 12.7559 459.939 13.1855C459.783 13.6087 459.705 14.0807 459.705 14.6016ZM478.484 11.4375C477.684 12.3034 477.042 13.1562 476.561 13.9961C476.079 14.8359 475.708 15.7148 475.447 16.6328C475.187 17.5443 475.011 18.5208 474.92 19.5625C474.829 20.5977 474.777 21.7435 474.764 23H473.357C473.37 21.8151 473.432 20.6986 473.543 19.6504C473.66 18.6022 473.862 17.6029 474.148 16.6523C474.435 15.6953 474.826 14.7839 475.32 13.918C475.815 13.0521 476.44 12.2122 477.195 11.3984H471.121V13.8984H469.979V10.2559H478.484V11.4375ZM481.434 16.6426C481.434 17.5866 481.548 18.472 481.775 19.2988L487.742 13C487.43 12.4141 487.042 11.9648 486.58 11.6523C486.124 11.3398 485.59 11.1836 484.979 11.1836C483.833 11.1836 482.954 11.6719 482.342 12.6484C481.736 13.6185 481.434 14.9499 481.434 16.6426ZM482.234 20.3828C482.879 21.5286 483.794 22.1016 484.979 22.1016C486.098 22.1016 486.967 21.6165 487.586 20.6465C488.204 19.6699 488.514 18.3353 488.514 16.6426C488.514 16.1738 488.484 15.7311 488.426 15.3145C488.367 14.8913 488.286 14.4876 488.182 14.1035L482.234 20.3828ZM480.096 16.6426C480.096 15.7897 480.187 14.9661 480.369 14.1719C480.551 13.3776 480.835 12.6745 481.219 12.0625C481.603 11.4505 482.104 10.9622 482.723 10.5977C483.348 10.2266 484.1 10.041 484.979 10.041C485.857 10.041 486.606 10.2266 487.225 10.5977C487.85 10.9622 488.357 11.4505 488.748 12.0625C489.139 12.6745 489.422 13.3776 489.598 14.1719C489.773 14.9661 489.861 15.7897 489.861 16.6426C489.861 17.4954 489.773 18.319 489.598 19.1133C489.422 19.9076 489.142 20.6074 488.758 21.2129C488.374 21.8184 487.869 22.3066 487.244 22.6777C486.626 23.0423 485.87 23.2246 484.979 23.2246C484.087 23.2246 483.328 23.0423 482.703 22.6777C482.085 22.3066 481.58 21.8184 481.189 21.2129C480.805 20.6074 480.529 19.9076 480.359 19.1133C480.184 18.319 480.096 17.4954 480.096 16.6426Z" fill="black"/>
<path d="M668.939 23H663.48V21.8574H665.541V13.1562C665.424 13.4232 665.238 13.7096 664.984 14.0156C664.73 14.3151 664.431 14.5918 664.086 14.8457C663.741 15.0931 663.36 15.3014 662.943 15.4707C662.533 15.64 662.107 15.7246 661.664 15.7246V14.3379C662.061 14.3379 662.488 14.2142 662.943 13.9668C663.399 13.7194 663.819 13.4036 664.203 13.0195C664.587 12.6354 664.906 12.1992 665.16 11.7109C665.414 11.2227 665.541 10.7376 665.541 10.2559H666.889V21.8574H668.939V23ZM672.357 14.6016C672.357 13.8919 672.475 13.2572 672.709 12.6973C672.943 12.1374 673.266 11.6621 673.676 11.2715C674.092 10.8743 674.584 10.5716 675.15 10.3633C675.717 10.1484 676.329 10.041 676.986 10.041C677.878 10.041 678.633 10.2266 679.252 10.5977C679.87 10.9622 680.365 11.4505 680.736 12.0625C681.114 12.6745 681.384 13.3743 681.547 14.1621C681.716 14.9499 681.801 15.7702 681.801 16.623C681.801 17.4889 681.687 18.319 681.459 19.1133C681.231 19.9076 680.893 20.6107 680.443 21.2227C680.001 21.8346 679.438 22.3229 678.754 22.6875C678.077 23.0456 677.292 23.2246 676.4 23.2246C675.137 23.2246 674.086 22.7819 673.246 21.8965L674.125 21.1152C674.418 21.4408 674.757 21.6849 675.141 21.8477C675.531 22.0039 675.951 22.082 676.4 22.082C677.084 22.082 677.683 21.9518 678.197 21.6914C678.718 21.431 679.154 21.0697 679.506 20.6074C679.864 20.1387 680.128 19.5788 680.297 18.9277C680.473 18.2702 680.561 17.5475 680.561 16.7598C680.456 17.0918 680.281 17.4043 680.033 17.6973C679.786 17.9902 679.496 18.2441 679.164 18.459C678.832 18.6738 678.467 18.8464 678.07 18.9766C677.68 19.1003 677.296 19.1621 676.918 19.1621C676.254 19.1621 675.642 19.0482 675.082 18.8203C674.522 18.5924 674.04 18.2799 673.637 17.8828C673.24 17.4792 672.927 16.9974 672.699 16.4375C672.471 15.8776 672.357 15.2656 672.357 14.6016ZM673.705 14.6016C673.705 15.0833 673.777 15.5358 673.92 15.959C674.07 16.3757 674.281 16.737 674.555 17.043C674.828 17.349 675.163 17.5898 675.561 17.7656C675.964 17.9349 676.417 18.0195 676.918 18.0195C677.413 18.0195 677.865 17.9414 678.275 17.7852C678.692 17.6224 679.047 17.3978 679.34 17.1113C679.633 16.8249 679.857 16.4798 680.014 16.0762C680.176 15.666 680.258 15.2135 680.258 14.7188C680.258 14.237 680.189 13.7845 680.053 13.3613C679.923 12.9316 679.721 12.554 679.447 12.2285C679.18 11.903 678.842 11.6491 678.432 11.4668C678.028 11.278 677.546 11.1836 676.986 11.1836C676.505 11.1836 676.062 11.265 675.658 11.4277C675.261 11.584 674.916 11.8086 674.623 12.1016C674.33 12.3945 674.102 12.7559 673.939 13.1855C673.783 13.6087 673.705 14.0807 673.705 14.6016ZM692.699 19.416C692.699 20.0866 692.579 20.6595 692.338 21.1348C692.097 21.6035 691.765 21.9941 691.342 22.3066C690.925 22.6191 690.434 22.8503 689.867 23C689.301 23.1497 688.699 23.2246 688.061 23.2246C687.41 23.2246 686.804 23.1497 686.244 23C685.684 22.8503 685.193 22.6191 684.77 22.3066C684.353 21.9941 684.024 21.6035 683.783 21.1348C683.542 20.6595 683.422 20.0866 683.422 19.416C683.422 19.071 683.484 18.7227 683.607 18.3711C683.738 18.0195 683.92 17.694 684.154 17.3945C684.395 17.0885 684.685 16.8379 685.023 16.6426C685.368 16.4408 685.746 16.3138 686.156 16.2617C685.798 16.2227 685.479 16.1055 685.199 15.9102C684.919 15.7148 684.682 15.487 684.486 15.2266C684.298 14.9661 684.148 14.6829 684.037 14.377C683.933 14.071 683.881 13.778 683.881 13.498C683.881 12.9251 683.995 12.4238 684.223 11.9941C684.451 11.5579 684.757 11.1966 685.141 10.9102C685.525 10.6237 685.971 10.4089 686.479 10.2656C686.986 10.1159 687.514 10.041 688.061 10.041C688.607 10.041 689.135 10.1159 689.643 10.2656C690.15 10.4089 690.596 10.6237 690.98 10.9102C691.365 11.1966 691.671 11.5579 691.898 11.9941C692.126 12.4238 692.24 12.9251 692.24 13.498C692.24 13.778 692.185 14.071 692.074 14.377C691.97 14.6829 691.82 14.9661 691.625 15.2266C691.436 15.487 691.199 15.7148 690.912 15.9102C690.626 16.1055 690.3 16.2227 689.936 16.2617C690.352 16.3138 690.73 16.4408 691.068 16.6426C691.407 16.8379 691.697 17.0885 691.938 17.3945C692.178 17.694 692.364 18.0195 692.494 18.3711C692.631 18.7227 692.699 19.071 692.699 19.416ZM690.902 13.498C690.902 12.7819 690.648 12.2188 690.141 11.8086C689.633 11.3919 688.939 11.1836 688.061 11.1836C687.182 11.1836 686.488 11.3919 685.98 11.8086C685.473 12.2188 685.219 12.7819 685.219 13.498C685.219 14.1686 685.46 14.7025 685.941 15.0996C686.423 15.4967 687.13 15.6953 688.061 15.6953C688.992 15.6953 689.698 15.4967 690.18 15.0996C690.661 14.7025 690.902 14.1686 690.902 13.498ZM691.361 19.416C691.361 18.9538 691.27 18.5599 691.088 18.2344C690.912 17.9023 690.668 17.6354 690.355 17.4336C690.049 17.2253 689.701 17.0755 689.311 16.9844C688.92 16.8867 688.503 16.8379 688.061 16.8379C687.618 16.8379 687.201 16.8867 686.811 16.9844C686.42 17.0755 686.068 17.2253 685.756 17.4336C685.45 17.6354 685.206 17.9023 685.023 18.2344C684.848 18.5599 684.76 18.9538 684.76 19.416C684.76 19.8717 684.848 20.2656 685.023 20.5977C685.206 20.9297 685.45 21.2064 685.756 21.4277C686.068 21.6491 686.42 21.8151 686.811 21.9258C687.201 22.0299 687.618 22.082 688.061 22.082C688.503 22.082 688.92 22.0299 689.311 21.9258C689.701 21.8151 690.049 21.6491 690.355 21.4277C690.668 21.2064 690.912 20.9297 691.088 20.5977C691.27 20.2656 691.361 19.8717 691.361 19.416ZM695.434 16.6426C695.434 17.5866 695.548 18.472 695.775 19.2988L701.742 13C701.43 12.4141 701.042 11.9648 700.58 11.6523C700.124 11.3398 699.59 11.1836 698.979 11.1836C697.833 11.1836 696.954 11.6719 696.342 12.6484C695.736 13.6185 695.434 14.9499 695.434 16.6426ZM696.234 20.3828C696.879 21.5286 697.794 22.1016 698.979 22.1016C700.098 22.1016 700.967 21.6165 701.586 20.6465C702.204 19.6699 702.514 18.3353 702.514 16.6426C702.514 16.1738 702.484 15.7311 702.426 15.3145C702.367 14.8913 702.286 14.4876 702.182 14.1035L696.234 20.3828ZM694.096 16.6426C694.096 15.7897 694.187 14.9661 694.369 14.1719C694.551 13.3776 694.835 12.6745 695.219 12.0625C695.603 11.4505 696.104 10.9622 696.723 10.5977C697.348 10.2266 698.1 10.041 698.979 10.041C699.857 10.041 700.606 10.2266 701.225 10.5977C701.85 10.9622 702.357 11.4505 702.748 12.0625C703.139 12.6745 703.422 13.3776 703.598 14.1719C703.773 14.9661 703.861 15.7897 703.861 16.6426C703.861 17.4954 703.773 18.319 703.598 19.1133C703.422 19.9076 703.142 20.6074 702.758 21.2129C702.374 21.8184 701.869 22.3066 701.244 22.6777C700.626 23.0423 699.87 23.2246 698.979 23.2246C698.087 23.2246 697.328 23.0423 696.703 22.6777C696.085 22.3066 695.58 21.8184 695.189 21.2129C694.805 20.6074 694.529 19.9076 694.359 19.1133C694.184 18.319 694.096 17.4954 694.096 16.6426Z" fill="black"/>
<path d="M882.939 23H877.48V21.8574H879.541V13.1562C879.424 13.4232 879.238 13.7096 878.984 14.0156C878.73 14.3151 878.431 14.5918 878.086 14.8457C877.741 15.0931 877.36 15.3014 876.943 15.4707C876.533 15.64 876.107 15.7246 875.664 15.7246V14.3379C876.061 14.3379 876.488 14.2142 876.943 13.9668C877.399 13.7194 877.819 13.4036 878.203 13.0195C878.587 12.6354 878.906 12.1992 879.16 11.7109C879.414 11.2227 879.541 10.7376 879.541 10.2559H880.889V21.8574H882.939V23ZM886.357 14.6016C886.357 13.8919 886.475 13.2572 886.709 12.6973C886.943 12.1374 887.266 11.6621 887.676 11.2715C888.092 10.8743 888.584 10.5716 889.15 10.3633C889.717 10.1484 890.329 10.041 890.986 10.041C891.878 10.041 892.633 10.2266 893.252 10.5977C893.87 10.9622 894.365 11.4505 894.736 12.0625C895.114 12.6745 895.384 13.3743 895.547 14.1621C895.716 14.9499 895.801 15.7702 895.801 16.623C895.801 17.4889 895.687 18.319 895.459 19.1133C895.231 19.9076 894.893 20.6107 894.443 21.2227C894.001 21.8346 893.438 22.3229 892.754 22.6875C892.077 23.0456 891.292 23.2246 890.4 23.2246C889.137 23.2246 888.086 22.7819 887.246 21.8965L888.125 21.1152C888.418 21.4408 888.757 21.6849 889.141 21.8477C889.531 22.0039 889.951 22.082 890.4 22.082C891.084 22.082 891.683 21.9518 892.197 21.6914C892.718 21.431 893.154 21.0697 893.506 20.6074C893.864 20.1387 894.128 19.5788 894.297 18.9277C894.473 18.2702 894.561 17.5475 894.561 16.7598C894.456 17.0918 894.281 17.4043 894.033 17.6973C893.786 17.9902 893.496 18.2441 893.164 18.459C892.832 18.6738 892.467 18.8464 892.07 18.9766C891.68 19.1003 891.296 19.1621 890.918 19.1621C890.254 19.1621 889.642 19.0482 889.082 18.8203C888.522 18.5924 888.04 18.2799 887.637 17.8828C887.24 17.4792 886.927 16.9974 886.699 16.4375C886.471 15.8776 886.357 15.2656 886.357 14.6016ZM887.705 14.6016C887.705 15.0833 887.777 15.5358 887.92 15.959C888.07 16.3757 888.281 16.737 888.555 17.043C888.828 17.349 889.163 17.5898 889.561 17.7656C889.964 17.9349 890.417 18.0195 890.918 18.0195C891.413 18.0195 891.865 17.9414 892.275 17.7852C892.692 17.6224 893.047 17.3978 893.34 17.1113C893.633 16.8249 893.857 16.4798 894.014 16.0762C894.176 15.666 894.258 15.2135 894.258 14.7188C894.258 14.237 894.189 13.7845 894.053 13.3613C893.923 12.9316 893.721 12.554 893.447 12.2285C893.18 11.903 892.842 11.6491 892.432 11.4668C892.028 11.278 891.546 11.1836 890.986 11.1836C890.505 11.1836 890.062 11.265 889.658 11.4277C889.261 11.584 888.916 11.8086 888.623 12.1016C888.33 12.3945 888.102 12.7559 887.939 13.1855C887.783 13.6087 887.705 14.0807 887.705 14.6016ZM897.275 14.6016C897.275 13.8919 897.393 13.2572 897.627 12.6973C897.861 12.1374 898.184 11.6621 898.594 11.2715C899.01 10.8743 899.502 10.5716 900.068 10.3633C900.635 10.1484 901.247 10.041 901.904 10.041C902.796 10.041 903.551 10.2266 904.17 10.5977C904.788 10.9622 905.283 11.4505 905.654 12.0625C906.032 12.6745 906.302 13.3743 906.465 14.1621C906.634 14.9499 906.719 15.7702 906.719 16.623C906.719 17.4889 906.605 18.319 906.377 19.1133C906.149 19.9076 905.811 20.6107 905.361 21.2227C904.919 21.8346 904.355 22.3229 903.672 22.6875C902.995 23.0456 902.21 23.2246 901.318 23.2246C900.055 23.2246 899.004 22.7819 898.164 21.8965L899.043 21.1152C899.336 21.4408 899.674 21.6849 900.059 21.8477C900.449 22.0039 900.869 22.082 901.318 22.082C902.002 22.082 902.601 21.9518 903.115 21.6914C903.636 21.431 904.072 21.0697 904.424 20.6074C904.782 20.1387 905.046 19.5788 905.215 18.9277C905.391 18.2702 905.479 17.5475 905.479 16.7598C905.374 17.0918 905.199 17.4043 904.951 17.6973C904.704 17.9902 904.414 18.2441 904.082 18.459C903.75 18.6738 903.385 18.8464 902.988 18.9766C902.598 19.1003 902.214 19.1621 901.836 19.1621C901.172 19.1621 900.56 19.0482 900 18.8203C899.44 18.5924 898.958 18.2799 898.555 17.8828C898.158 17.4792 897.845 16.9974 897.617 16.4375C897.389 15.8776 897.275 15.2656 897.275 14.6016ZM898.623 14.6016C898.623 15.0833 898.695 15.5358 898.838 15.959C898.988 16.3757 899.199 16.737 899.473 17.043C899.746 17.349 900.081 17.5898 900.479 17.7656C900.882 17.9349 901.335 18.0195 901.836 18.0195C902.331 18.0195 902.783 17.9414 903.193 17.7852C903.61 17.6224 903.965 17.3978 904.258 17.1113C904.551 16.8249 904.775 16.4798 904.932 16.0762C905.094 15.666 905.176 15.2135 905.176 14.7188C905.176 14.237 905.107 13.7845 904.971 13.3613C904.84 12.9316 904.639 12.554 904.365 12.2285C904.098 11.903 903.76 11.6491 903.35 11.4668C902.946 11.278 902.464 11.1836 901.904 11.1836C901.423 11.1836 900.98 11.265 900.576 11.4277C900.179 11.584 899.834 11.8086 899.541 12.1016C899.248 12.3945 899.02 12.7559 898.857 13.1855C898.701 13.6087 898.623 14.0807 898.623 14.6016ZM909.434 16.6426C909.434 17.5866 909.548 18.472 909.775 19.2988L915.742 13C915.43 12.4141 915.042 11.9648 914.58 11.6523C914.124 11.3398 913.59 11.1836 912.979 11.1836C911.833 11.1836 910.954 11.6719 910.342 12.6484C909.736 13.6185 909.434 14.9499 909.434 16.6426ZM910.234 20.3828C910.879 21.5286 911.794 22.1016 912.979 22.1016C914.098 22.1016 914.967 21.6165 915.586 20.6465C916.204 19.6699 916.514 18.3353 916.514 16.6426C916.514 16.1738 916.484 15.7311 916.426 15.3145C916.367 14.8913 916.286 14.4876 916.182 14.1035L910.234 20.3828ZM908.096 16.6426C908.096 15.7897 908.187 14.9661 908.369 14.1719C908.551 13.3776 908.835 12.6745 909.219 12.0625C909.603 11.4505 910.104 10.9622 910.723 10.5977C911.348 10.2266 912.1 10.041 912.979 10.041C913.857 10.041 914.606 10.2266 915.225 10.5977C915.85 10.9622 916.357 11.4505 916.748 12.0625C917.139 12.6745 917.422 13.3776 917.598 14.1719C917.773 14.9661 917.861 15.7897 917.861 16.6426C917.861 17.4954 917.773 18.319 917.598 19.1133C917.422 19.9076 917.142 20.6074 916.758 21.2129C916.374 21.8184 915.869 22.3066 915.244 22.6777C914.626 23.0423 913.87 23.2246 912.979 23.2246C912.087 23.2246 911.328 23.0423 910.703 22.6777C910.085 22.3066 909.58 21.8184 909.189 21.2129C908.805 20.6074 908.529 19.9076 908.359 19.1133C908.184 18.319 908.096 17.4954 908.096 16.6426Z" fill="black"/>
<path d="M1098.29 13.5566C1098.29 13.9082 1098.25 14.224 1098.19 14.5039C1098.13 14.7839 1098.02 15.0671 1097.86 15.3535C1097.7 15.64 1097.49 15.9427 1097.23 16.2617C1096.97 16.5807 1096.64 16.9453 1096.25 17.3555L1091.8 21.8574H1097.18V19.3574H1098.33V23H1090.04V21.8184L1095.01 16.7793C1095.26 16.5254 1095.5 16.2715 1095.73 16.0176C1095.96 15.7637 1096.17 15.5065 1096.35 15.2461C1096.54 14.9857 1096.68 14.7155 1096.78 14.4355C1096.89 14.1556 1096.94 13.8626 1096.94 13.5566C1096.94 12.7754 1096.68 12.1862 1096.16 11.7891C1095.64 11.3854 1095.01 11.1836 1094.24 11.1836C1093.18 11.1836 1092.37 11.4798 1091.82 12.0723C1091.28 12.6647 1091 13.5208 1091 14.6406H1089.76C1089.76 13.2018 1090.15 12.0755 1090.91 11.2617C1091.68 10.4479 1092.79 10.041 1094.24 10.041C1094.79 10.041 1095.31 10.1224 1095.79 10.2852C1096.28 10.4414 1096.71 10.6693 1097.08 10.9688C1097.45 11.2682 1097.75 11.6361 1097.96 12.0723C1098.18 12.502 1098.29 12.9967 1098.29 13.5566ZM1101.6 16.6426C1101.6 17.5866 1101.71 18.472 1101.94 19.2988L1107.91 13C1107.59 12.4141 1107.21 11.9648 1106.74 11.6523C1106.29 11.3398 1105.75 11.1836 1105.14 11.1836C1104 11.1836 1103.12 11.6719 1102.51 12.6484C1101.9 13.6185 1101.6 14.9499 1101.6 16.6426ZM1102.4 20.3828C1103.04 21.5286 1103.96 22.1016 1105.14 22.1016C1106.26 22.1016 1107.13 21.6165 1107.75 20.6465C1108.37 19.6699 1108.68 18.3353 1108.68 16.6426C1108.68 16.1738 1108.65 15.7311 1108.59 15.3145C1108.53 14.8913 1108.45 14.4876 1108.35 14.1035L1102.4 20.3828ZM1100.26 16.6426C1100.26 15.7897 1100.35 14.9661 1100.53 14.1719C1100.72 13.3776 1101 12.6745 1101.38 12.0625C1101.77 11.4505 1102.27 10.9622 1102.89 10.5977C1103.51 10.2266 1104.26 10.041 1105.14 10.041C1106.02 10.041 1106.77 10.2266 1107.39 10.5977C1108.01 10.9622 1108.52 11.4505 1108.91 12.0625C1109.3 12.6745 1109.59 13.3776 1109.76 14.1719C1109.94 14.9661 1110.03 15.7897 1110.03 16.6426C1110.03 17.4954 1109.94 18.319 1109.76 19.1133C1109.59 19.9076 1109.31 20.6074 1108.92 21.2129C1108.54 21.8184 1108.03 22.3066 1107.41 22.6777C1106.79 23.0423 1106.03 23.2246 1105.14 23.2246C1104.25 23.2246 1103.49 23.0423 1102.87 22.6777C1102.25 22.3066 1101.74 21.8184 1101.35 21.2129C1100.97 20.6074 1100.69 19.9076 1100.52 19.1133C1100.35 18.319 1100.26 17.4954 1100.26 16.6426ZM1120.12 13.5566C1120.12 13.9082 1120.09 14.224 1120.03 14.5039C1119.97 14.7839 1119.86 15.0671 1119.69 15.3535C1119.54 15.64 1119.33 15.9427 1119.07 16.2617C1118.81 16.5807 1118.48 16.9453 1118.08 17.3555L1113.64 21.8574H1119.02V19.3574H1120.16V23H1111.88V21.8184L1116.84 16.7793C1117.1 16.5254 1117.34 16.2715 1117.56 16.0176C1117.8 15.7637 1118.01 15.5065 1118.19 15.2461C1118.37 14.9857 1118.51 14.7155 1118.62 14.4355C1118.72 14.1556 1118.78 13.8626 1118.78 13.5566C1118.78 12.7754 1118.51 12.1862 1117.99 11.7891C1117.48 11.3854 1116.84 11.1836 1116.08 11.1836C1115.01 11.1836 1114.21 11.4798 1113.66 12.0723C1113.11 12.6647 1112.84 13.5208 1112.84 14.6406H1111.6C1111.6 13.2018 1111.98 12.0755 1112.75 11.2617C1113.52 10.4479 1114.63 10.041 1116.08 10.041C1116.63 10.041 1117.14 10.1224 1117.62 10.2852C1118.11 10.4414 1118.54 10.6693 1118.91 10.9688C1119.29 11.2682 1119.59 11.6361 1119.8 12.0723C1120.02 12.502 1120.12 12.9967 1120.12 13.5566ZM1123.43 16.6426C1123.43 17.5866 1123.55 18.472 1123.78 19.2988L1129.74 13C1129.43 12.4141 1129.04 11.9648 1128.58 11.6523C1128.12 11.3398 1127.59 11.1836 1126.98 11.1836C1125.83 11.1836 1124.95 11.6719 1124.34 12.6484C1123.74 13.6185 1123.43 14.9499 1123.43 16.6426ZM1124.23 20.3828C1124.88 21.5286 1125.79 22.1016 1126.98 22.1016C1128.1 22.1016 1128.97 21.6165 1129.59 20.6465C1130.2 19.6699 1130.51 18.3353 1130.51 16.6426C1130.51 16.1738 1130.48 15.7311 1130.43 15.3145C1130.37 14.8913 1130.29 14.4876 1130.18 14.1035L1124.23 20.3828ZM1122.1 16.6426C1122.1 15.7897 1122.19 14.9661 1122.37 14.1719C1122.55 13.3776 1122.83 12.6745 1123.22 12.0625C1123.6 11.4505 1124.1 10.9622 1124.72 10.5977C1125.35 10.2266 1126.1 10.041 1126.98 10.041C1127.86 10.041 1128.61 10.2266 1129.22 10.5977C1129.85 10.9622 1130.36 11.4505 1130.75 12.0625C1131.14 12.6745 1131.42 13.3776 1131.6 14.1719C1131.77 14.9661 1131.86 15.7897 1131.86 16.6426C1131.86 17.4954 1131.77 18.319 1131.6 19.1133C1131.42 19.9076 1131.14 20.6074 1130.76 21.2129C1130.37 21.8184 1129.87 22.3066 1129.24 22.6777C1128.63 23.0423 1127.87 23.2246 1126.98 23.2246C1126.09 23.2246 1125.33 23.0423 1124.7 22.6777C1124.08 22.3066 1123.58 21.8184 1123.19 21.2129C1122.81 20.6074 1122.53 19.9076 1122.36 19.1133C1122.18 18.319 1122.1 17.4954 1122.1 16.6426Z" fill="black"/>
<path d="M1320.04 10.2559H1321.86V12.082H1320.04V10.2559ZM1316.62 20.2363C1316.62 19.735 1316.71 19.2956 1316.9 18.918C1317.09 18.5339 1317.32 18.1823 1317.6 17.8633C1317.88 17.5443 1318.19 17.2448 1318.52 16.9648C1318.86 16.6784 1319.17 16.3854 1319.45 16.0859C1319.73 15.7865 1319.96 15.4609 1320.14 15.1094C1320.33 14.7578 1320.42 14.3542 1320.42 13.8984H1321.84C1321.84 14.4062 1321.74 14.862 1321.54 15.2656C1321.36 15.6628 1321.12 16.0339 1320.84 16.3789C1320.56 16.724 1320.25 17.0527 1319.91 17.3652C1319.58 17.6712 1319.27 17.974 1318.99 18.2734C1318.71 18.5729 1318.47 18.8822 1318.27 19.2012C1318.08 19.5202 1317.98 19.8652 1317.98 20.2363C1317.98 20.8092 1318.16 21.2617 1318.51 21.5938C1318.87 21.9193 1319.38 22.082 1320.04 22.082C1320.87 22.082 1321.49 21.8379 1321.9 21.3496C1322.31 20.8613 1322.57 20.2461 1322.66 19.5039L1323.86 19.6797C1323.74 20.7734 1323.36 21.6393 1322.73 22.2773C1322.1 22.9089 1321.21 23.2246 1320.06 23.2246C1318.98 23.2246 1318.14 22.9479 1317.53 22.3945C1316.93 21.8411 1316.62 21.1217 1316.62 20.2363ZM1330.96 23H1329.14V21.1836H1330.96V23ZM1334.38 13.0195C1334.38 13.5273 1334.28 13.9733 1334.09 14.3574C1333.91 14.735 1333.68 15.0833 1333.4 15.4023C1333.12 15.7214 1332.81 16.0208 1332.48 16.3008C1332.15 16.5807 1331.84 16.8704 1331.56 17.1699C1331.28 17.4694 1331.05 17.7982 1330.86 18.1562C1330.67 18.5078 1330.58 18.9082 1330.58 19.3574H1329.16C1329.16 18.8496 1329.26 18.3971 1329.45 18C1329.64 17.6029 1329.88 17.2318 1330.16 16.8867C1330.44 16.5352 1330.75 16.2064 1331.09 15.9004C1331.43 15.5944 1331.74 15.2917 1332.02 14.9922C1332.3 14.6927 1332.54 14.3835 1332.73 14.0645C1332.92 13.7389 1333.02 13.3906 1333.02 13.0195C1333.02 12.4466 1332.84 11.9974 1332.49 11.6719C1332.14 11.3464 1331.63 11.1836 1330.96 11.1836C1330.55 11.1836 1330.19 11.252 1329.88 11.3887C1329.57 11.5189 1329.31 11.6979 1329.09 11.9258C1328.89 12.1471 1328.72 12.4141 1328.59 12.7266C1328.46 13.0391 1328.38 13.3841 1328.34 13.7617L1327.14 13.5762C1327.26 12.4824 1327.63 11.6198 1328.26 10.9883C1328.9 10.3568 1329.79 10.041 1330.94 10.041C1332.02 10.041 1332.86 10.3177 1333.47 10.8711C1334.07 11.4245 1334.38 12.1406 1334.38 13.0195Z" fill="black"/>
</svg>
